<?xml version="1.0" encoding="utf-8"?>
<!-- Generator: Adobe Illustrator 24.3.0, SVG Export Plug-In . SVG Version: 6.00 Build 0)  -->
<svg version="1.1" id="Layer_1" xmlns="http://www.w3.org/2000/svg" xmlns:xlink="http://www.w3.org/1999/xlink" x="0px" y="0px"
	 viewBox="0 0 470.9 265.7" style="enable-background:new 0 0 470.9 265.7;" xml:space="preserve">
<style type="text/css">
	.st0{display:none;fill:#FFFFFF;}
	.st1{fill:#C3C6C9;}
	.st2{fill:#1871B9;}
</style>
<rect x="0" y="-0.5" class="st0" width="470.9" height="265.7"/>
<g>
	<g>
		<path class="st1" d="M169.8,109.1c6.1,1.2,10.7,6.5,10.7,12.9c0,2.4-0.7,4.7-1.8,6.7l-10.9-7.4l-1,1.4l10.9,7.4
			c-2.4,3.1-6.2,5.1-10.4,5.1c-1.2,0-2.4-0.2-3.7-0.6l-0.5,1.6c1.6,0.5,2.9,0.7,4.2,0.7c4.8,0,9.1-2.3,11.8-5.8l42.1,28.6l1-1.4
			l-42.1-28.6c1.3-2.2,2.1-4.8,2.1-7.6c0-7-4.9-12.9-11.5-14.5c5.7-10.7,9.9-22.3,12.4-34.6l-1.7-0.3c-2.5,12.3-6.8,24-12.5,34.7
			c-0.5-0.1-1.1-0.1-1.6-0.1c-5.8,0-11.1,3.4-13.5,8.7l1.5,0.7c2.1-4.7,6.8-7.7,12-7.7c0.2,0,0.5,0,0.7,0
			c-13.7,24.8-35.2,44.4-60.8,55.9l-17.1-39l-1.6,0.7l17.1,39C90.1,172.2,73,176,55.2,176.1v-17.5c11.8-3.6,20.4-14.6,20.4-27.6
			c0-5.4-1.5-10.4-4.1-14.8l3.7-2.3l-0.9-1.4l-3.7,2.3c-0.6-0.8-1.2-1.6-1.8-2.4c16.5-3.6,30.8-13.3,40.4-26.7l24.5,17.1l1-1.4
			l-24.5-17.1c0.7-1.1,1.5-2.2,2.1-3.3l9.6,5.5l0.8-1.5l-9.6-5.6c0.6-1,1.1-2.1,1.7-3.1l10,4.8l0.7-1.5l-10-4.8
			c0.7-1.5,1.4-3.1,2-4.7l10.4,3.8l0.6-1.6l-10.4-3.8c0.5-1.6,1-3.2,1.5-4.8l28.9,7.3l0.4-1.6L120,62.1c0.4-1.6,0.7-3.1,1-4.7
			l10.9,1.7l0.3-1.7l-10.9-1.7c0.4-2.8,0.6-5.6,0.6-8.5h160.3v-1.7H121.9c-0.1-5-0.7-10.1-2-15.2l-1.6,0.4c1.2,5,1.9,10,1.9,14.8
			h-16.6c0-0.9,0-1.7-0.1-2.6l-1.7,0.1c0.1,0.8,0.1,1.7,0.1,2.5H90.9c0-0.7-0.1-1.4-0.1-2.1l-1.7,0.1c0.1,0.7,0.1,1.3,0.1,2H53.5
			v35.7c-1.5,0-3.1-0.2-4.7-0.4c-2.5-0.4-5-1.1-7.5-2.1l-0.6,1.6c2.6,1.1,5.3,1.8,7.9,2.2c1.6,0.3,3.3,0.4,4.9,0.4V94
			c-2.4,0-4.8-0.3-7.2-0.7c-3.4-0.6-6.9-1.6-10.3-3l-0.6,1.6c3.5,1.5,7.1,2.5,10.6,3.1c2.5,0.4,5,0.7,7.5,0.7v7.1
			c-2.2-0.5-4.5-0.8-6.8-0.8c-1.4,0-2.9,0.1-4.6,0.4l0.3,1.7c1.6-0.3,3-0.4,4.4-0.4c2.3,0,4.6,0.3,6.8,0.9v7.7
			c-4.5-0.1-9.2-0.6-13.8-1.7l-0.4,1.7c4.8,1.1,9.6,1.7,14.2,1.7v11.7l-7.2,4.6l0.5,0.7h-0.8v27.2c-11.2-0.4-21.1-7.6-24.8-18.3
			l-1.6,0.6c3.9,11.4,14.5,19.1,26.4,19.4v8.7h1.7v-8.7c2-0.1,4-0.3,5.9-0.8v17.1c-6.3,0-12.6-0.5-18.8-1.5l-0.3,1.7
			c6.3,1,12.7,1.4,19,1.5v41.4h1.7v-41.4c1.5,0,3.1,0,4.6-0.1l0.7,13.9l1.7-0.1l-0.7-13.9c1.7-0.1,3.3-0.2,5-0.4l1.4,13.9l1.7-0.2
			L68.1,177c2.1-0.2,4.3-0.5,6.4-0.8l2.2,13.8l1.7-0.3l-2.2-13.8c1.3-0.2,2.6-0.4,3.8-0.7l6.3,30.7l1.7-0.3l-6.3-30.7
			c1.5-0.3,3.1-0.7,4.6-1.1l3.5,13.5l1.6-0.4l-3.5-13.5c1.6-0.4,3.2-0.9,4.8-1.4l4.2,13.3l1.6-0.5l-4.2-13.3c2-0.7,4.1-1.4,6.1-2.1
			l5,13.1l1.6-0.6l-5-13.1c1.5-0.6,2.9-1.2,4.4-1.8l18.8,42.9l1.6-0.7l-18.8-42.9c1.8-0.8,3.5-1.6,5.3-2.5l6.4,12.5l1.5-0.8
			l-6.4-12.5C137.9,151,157.2,132.2,169.8,109.1z M73.9,130.9c0,12-7.9,22.3-18.7,25.9v-30.2l14.9-9.5
			C72.6,121.1,73.9,125.8,73.9,130.9z M118.4,61.7l-16-4c0.2-1,0.4-1.9,0.6-2.9c0.4-2.4,0.6-4.9,0.6-7.5h16.6
			C120.1,52.2,119.5,57,118.4,61.7z M89.2,47.2c0,1.6-0.2,3.2-0.4,4.7c-1.5,9.2-6.4,17.3-14,22.7c-5.8,4.2-12.6,6.5-19.6,6.6v-34
			H89.2z M55.2,82.9c7.4-0.2,14.5-2.5,20.6-6.9c7.9-5.7,13.1-14.2,14.7-23.8c0.3-1.6,0.4-3.2,0.4-4.9h11.1c0,2.5-0.2,4.9-0.6,7.2
			C99.2,67,92.3,77.9,81.9,85.3c-7.9,5.6-17.2,8.6-26.7,8.7V82.9z M55.2,95.7c9.8-0.1,19.4-3.2,27.6-9C92.3,80,99,70.4,102,59.3
			l16,4c-6.4,23.9-25.9,42.6-50.4,47.6c-3.4-3.5-7.6-6.2-12.3-7.6V95.7z M65.5,111.3c-3.4,0.6-6.8,0.9-10.3,0.9v-7.2
			C59.1,106.3,62.6,108.5,65.5,111.3z M55.2,113.9c4,0,7.9-0.5,11.7-1.2c0.8,0.9,1.6,1.9,2.3,2.9l-14,8.9V113.9z M47.6,158.1v-26.7
			l5.9-3.8v29.7C51.6,157.8,49.6,158,47.6,158.1z"/>
		<path class="st1" d="M440.5,180.4c3.4,0.6,6.9,1.6,10.3,3l0.7-1.6c-3.5-1.5-7.1-2.5-10.6-3.1c-2.5-0.4-5-0.6-7.5-0.7V95.2h-1.7
			V178c-4.9,0.1-9.7,0.9-14.3,2.4l0.5,1.6c4.4-1.4,9.1-2.2,13.8-2.3v11.1c-19.1,0.4-34.8,15.6-35.7,34.8c0,0.3,0,0.6,0,0.8H148.8
			v1.7h247.2c0.1,2,0.3,4.1,0.7,6.2l1.7-0.3c-0.4-2-0.6-3.9-0.7-5.9h35.7v-35.7c0.3,0,0.5,0,0.8,0c2.5,0.1,5.1,0.5,7.7,1.3l0.5-1.6
			c-2.7-0.8-5.4-1.2-8.1-1.3c-0.3,0-0.6,0-0.8,0v-11.1C435.7,179.8,438.1,180,440.5,180.4z M397.6,226.5c0-0.3,0-0.5,0-0.8
			c0.8-18.4,15.9-32.8,34-33.2v34H397.6z"/>
	</g>
	<g>
		<g>
			<g>
				<path class="st2" d="M113.6,148.7c-5.5,0-15.4-2.6-16.5-16l3.9-0.2c0.9,10.4,7.9,12.4,12.6,12.4c8.4,0,13.3-6.5,13.3-12
					c0-4.5-2.2-7.4-14.3-10.4c-6.8-1.7-13.2-5.3-13.2-13c0-10,8.5-13.8,14.4-13.8c9,0,14.6,6.2,14.9,13.8l-3.9,0.2
					c-0.3-5.7-4.4-10.3-10.9-10.3c-4.7,0-10.5,3-10.5,9.9c0,5.7,4.7,8.1,10.3,9.4c14.1,3.5,17.2,8,17.2,14.1
					C130.9,140.3,124.7,148.7,113.6,148.7z"/>
			</g>
			<g>
				<path class="st2" d="M166.9,144.7c5.9,0,11.7-2.4,16-6.5l2.6,2.6c-4.9,4.9-11.6,7.6-18.5,7.6c-15.8,0-26.8-12.6-26.8-26.4
					c0-15.8,12.6-26.8,26.4-26.8c7.8,0,14.4,3.1,19.2,7.8l-2.6,2.6c-4-4.1-9.7-6.7-16.5-6.7c-12.1,0-22.6,9.7-22.6,23
					C144,134.1,153.7,144.7,166.9,144.7z"/>
			</g>
			<g>
				<path class="st2" d="M200.7,96.6h3.7v21.9h26.8V96.6h3.7v50.5h-3.7v-24.9h-26.8v24.9h-3.7V96.6z"/>
			</g>
			<g>
				<path class="st2" d="M270.7,122.3h-15.3v21.1h21.8v3.7h-25.6V96.6h22.9v3.7h-19.2v18.2h15.3V122.3z"/>
			</g>
			<g>
				<path class="st2" d="M342,95v52.2h-3.7v-41.9l-21,25.1l-21-25.1v41.9h-3.7V95l24.8,29.5L342,95z"/>
			</g>
			<g>
				<path class="st2" d="M377.8,95l24,51.4l-3.4,1.6l-8.7-18.7h-23.7l-8.7,18.7l-3.4-1.6L377.8,95z M377.7,103.9l-10.1,21.7h20.2
					L377.7,103.9z"/>
			</g>
		</g>
		<g>
			<g>
				<path class="st2" d="M130.8,200.8v-38.2h11.7c7.7,0,12.2,6.2,12.2,12.2c0,7.6-5.8,12.5-12,12.5h-9v13.5H130.8z M142.6,184.5
					c4.5,0,9.2-3.5,9.2-9.7c0-4.4-3.4-9.3-9.3-9.3h-8.9v19H142.6z"/>
			</g>
			<g>
				<path class="st2" d="M178.6,161.4l18.1,38.9l-2.6,1.2l-6.6-14.2h-17.9l-6.6,14.2l-2.6-1.2L178.6,161.4z M178.5,168.1l-7.6,16.4
					h15.3L178.5,168.1z"/>
			</g>
			<g>
				<path class="st2" d="M219.1,186.8c-1.3,0-3-0.3-3.3-0.4l13.3,13.4l-2,2l-17.3-17.3h7.7c4.5,0,9.2-3.5,9.2-9.7
					c0-4.4-3.4-9.3-9.3-9.3h-8.9v35.4h-2.8v-38.2h11.7c7.7,0,12.2,6.2,12.2,12.2C229.5,181.4,224.7,186.8,219.1,186.8z"/>
			</g>
			<g>
				<path class="st2" d="M248.2,200.8v-35.4H235v-2.8h28.9v2.8H251v35.4H248.2z"/>
			</g>
			<g>
				<path class="st2" d="M298.9,194.3v-31.7h2.8v39.5l-27.7-33v31.7h-2.8v-39.5L298.9,194.3z"/>
			</g>
			<g>
				<path class="st2" d="M328.7,182h-11.6v16h16.5v2.8h-19.3v-38.2h17.3v2.8h-14.5v13.8h11.6V182z"/>
			</g>
			<g>
				<path class="st2" d="M358.7,186.8c-1.3,0-3-0.3-3.3-0.4l13.3,13.4l-2,2l-17.3-17.3h7.7c4.5,0,9.2-3.5,9.2-9.7
					c0-4.4-3.4-9.3-9.3-9.3h-8.9v35.4h-2.8v-38.2h11.7c7.7,0,12.2,6.2,12.2,12.2C369.1,181.4,364.3,186.8,358.7,186.8z"/>
			</g>
			<g>
				<path class="st2" d="M388.3,202c-4,0-11.1-1.9-11.9-12.1l2.8-0.2c0.6,7.9,5.7,9.4,9.1,9.4c6,0,9.6-4.9,9.6-9.1
					c0-3.4-1.6-5.6-10.3-7.9c-4.9-1.3-9.5-4-9.5-9.8c0-7.6,6.1-10.5,10.3-10.5c6.5,0,10.5,4.7,10.8,10.5l-2.8,0.2
					c-0.2-4.3-3.2-7.8-7.9-7.8c-3.4,0-7.6,2.3-7.6,7.5c0,4.3,3.4,6.1,7.4,7.1c10.2,2.7,12.4,6,12.4,10.7
					C400.8,195.6,396.2,202,388.3,202z"/>
			</g>
		</g>
	</g>
</g>
</svg>
