<?xml version="1.0" encoding="utf-8"?>
<!-- Generator: Adobe Illustrator 24.3.0, SVG Export Plug-In . SVG Version: 6.00 Build 0)  -->
<svg version="1.1" id="Layer_1" xmlns="http://www.w3.org/2000/svg" xmlns:xlink="http://www.w3.org/1999/xlink" x="0px" y="0px"
	 viewBox="0 0 108 99.4" style="enable-background:new 0 0 108 99.4;" xml:space="preserve">
<style type="text/css">
	.st0{display:none;fill:#FFFFFF;}
	.st1{fill:#1870B9;}
</style>
<rect class="st0" width="108" height="99.4"/>
<g>
	<g>
		<g>
			<path class="st1" d="M57.3,81.6V29.3h16c10.6,0,16.7,8.6,16.7,16.7C90,56.3,82,63,73.5,63H61.2v18.5H57.3z M73.5,59.2
				c6.1,0,12.7-4.8,12.7-13.2c0-6-4.6-12.8-12.8-12.8H61.2v26H73.5z"/>
		</g>
		<g>
			<path class="st1" d="M35.1,72.6c-5.7,0-15.9-2.7-17.1-16.5l4.1-0.2c0.9,10.8,8.2,12.9,13.1,12.9c8.7,0,13.7-6.7,13.7-12.4
				c0-4.7-2.3-7.7-14.8-10.8c-7-1.8-13.7-5.5-13.7-13.4c0-10.4,8.8-14.3,14.9-14.3c9.3,0,15.1,6.5,15.5,14.3l-4.1,0.2
				c-0.3-5.9-4.5-10.6-11.3-10.6c-4.9,0-10.9,3.1-10.9,10.3c0,5.9,4.9,8.4,10.6,9.8c14.6,3.7,17.8,8.3,17.8,14.6
				C52.9,63.9,46.5,72.6,35.1,72.6z"/>
		</g>
	</g>
</g>
</svg>
